<?xml version="1.0" encoding="utf-8"?>
<!-- Generator: Adobe Illustrator 15.0.0, SVG Export Plug-In  -->
<!DOCTYPE svg PUBLIC "-//W3C//DTD SVG 1.1//EN" "http://www.w3.org/Graphics/SVG/1.1/DTD/svg11.dtd" [
	<!ENTITY ns_flows "http://ns.adobe.com/Flows/1.0/">
]>
<svg version="1.1"
	 xmlns="http://www.w3.org/2000/svg" xmlns:xlink="http://www.w3.org/1999/xlink" xmlns:a="http://ns.adobe.com/AdobeSVGViewerExtensions/3.0/"
	 x="0px" y="0px" width="360px" height="122px" viewBox="0 0 360 122" enable-background="new 0 0 360 122" xml:space="preserve">
<defs>
</defs>
<path fill-rule="evenodd" clip-rule="evenodd" fill="#00866B" d="M64.728,67.811l29.59,50.547H34.523L64.728,67.811z M98.323,33.907
	c-17.572,0-31.748,14.176-31.748,31.744h63.182C129.757,48.083,115.582,33.907,98.323,33.907 M31.747,33.907
	C14.176,33.907,0,48.083,0,65.651h63.182C63.182,48.083,49.007,33.907,31.747,33.907 M65.035,0
	C47.463,0,33.288,14.176,33.288,31.747H96.47C96.47,14.176,82.294,0,65.035,0"/>
<path fill-rule="evenodd" clip-rule="evenodd" fill="#00866B" d="M323.018,101.409c0,5.545,1.848,10.476,5.235,14.176
	c3.394,4.004,8.017,5.857,13.26,5.857c5.545,0,9.858-1.853,13.559-5.857c3.394-4.007,4.929-8.631,4.929-14.176
	c0-5.547-1.535-10.171-5.235-14.184c-3.394-4.004-7.707-5.852-13.252-5.852c-5.243,0-9.56,1.848-13.26,5.852
	C324.865,90.925,323.018,95.549,323.018,101.409 M335.346,101.409c0-5.547,0-9.56,0.619-12.024c0.924-3.695,2.771-5.24,5.548-5.24
	c2.464,0,4.312,1.233,5.24,4.004c0.611,2.776,1.228,7.093,1.228,13.26c0,6.164-0.617,10.476-1.228,13.252
	c-0.929,2.777-2.472,4.004-5.24,4.004c-2.776,0-4.624-1.541-5.548-5.24C335.346,111.267,335.346,107.26,335.346,101.409
	 M253.976,118.361c1.236,0,2.466-0.313,3.083-0.923c0.611-0.62,1.23-2.166,1.23-4.013V89.078c0-1.541-0.307-2.776-0.923-3.388
	c-0.619-0.616-1.848-0.929-3.39-1.236v-2.157h15.718v5.545c1.237-1.541,2.777-3.082,4.008-4.005c2.157-1.54,4.928-2.464,7.705-2.464
	c3.387,0,5.86,0.611,7.704,2.157c0.924,0.924,1.848,2.16,2.777,4.312h0.619c1.535-1.845,3.076-3.388,4.619-4.312
	c2.157-1.546,4.621-2.157,7.397-2.157c2.771,0,5.244,0.924,7.708,2.771c2.159,1.853,3.081,4.621,3.081,8.628v20.964
	c0,1.848,0.307,3.081,0.923,3.701c0.62,0.304,1.848,0.923,3.396,0.923v2.151h-19.729v-2.151c1.541-0.313,2.774-0.62,3.394-0.923
	c0.304-0.62,0.611-1.853,0.611-3.701V93.702c0-2.161-0.307-4.008-0.924-5.241c-0.616-0.923-1.852-1.542-3.387-1.542
	c-1.541,0-3.083,0.619-4.629,1.847c-1.535,1.236-2.459,2.16-2.459,2.776v22.196c0,1.848,0.305,3.081,0.924,3.388
	c0.611,0.617,1.535,0.923,3.081,1.236v2.151h-19.112v-2.151c1.231,0,2.467-0.62,3.084-0.923c0.616-0.62,0.924-1.853,0.924-3.701
	V93.702c0-2.161-0.308-3.7-0.924-4.937c-0.617-1.228-1.853-1.847-3.7-1.847c-1.848,0-3.388,0.619-4.624,1.847
	c-1.541,1.236-2.157,2.16-2.157,2.472v22.5c0,1.848,0.31,3.081,0.616,3.388c0.617,0.617,1.541,0.923,3.084,1.236v2.151h-19.726
	V118.361z M222.228,107.877h2.467c0.612,4.007,2.157,6.783,4.624,8.323c2.157,1.541,4.316,2.464,6.775,2.464
	c2.165,0,3.7-0.617,4.629-1.541c0.924-0.924,1.535-2.16,1.535-3.7c0-1.541-0.611-2.771-1.535-3.7
	c-0.617-0.617-1.541-1.229-3.083-1.847l-5.857-3.082c-3.388-1.542-5.548-3.387-7.088-5.24c-1.236-1.847-2.16-4.007-2.16-6.471
	c0-3.083,1.236-5.86,3.388-8.324c2.165-2.159,5.553-3.387,9.56-3.387c1.541,0,3.388,0.304,5.547,0.924
	c1.847,0.616,3.081,0.924,3.7,0.924c0.617,0,0.924-0.308,1.228-0.62c0.313-0.304,0.62-0.617,0.924-1.228h1.853v12.016h-1.853
	c-0.924-2.771-2.151-5.24-4.004-6.775c-1.847-1.853-4.007-2.469-6.471-2.469c-1.847,0-3.387,0.31-4.316,1.545
	c-0.924,0.924-1.231,1.848-1.231,3.076c0,1.236,0.307,2.16,1.231,3.083c0.616,0.924,2.157,1.853,4.316,3.083l4.624,2.157
	c2.776,1.236,4.928,2.467,6.165,4.008c2.157,2.157,3.081,4.623,3.081,7.704c0,3.083-0.924,6.164-3.081,8.637
	c-2.464,2.771-5.86,4.004-10.171,4.004c-1.236,0-2.16,0-3.388-0.31c-1.236-0.307-2.469-0.62-4.012-1.236l-1.535-0.611
	c-0.616,0-0.929,0-0.929-0.313h-0.616c-0.308,0-0.924,0.313-1.236,0.617c-0.308,0.307-0.612,0.924-0.924,1.853h-2.155V107.877z
	 M181.236,101.409c0,5.545,1.541,10.476,5.241,14.176c3.388,4.004,7.705,5.857,13.252,5.857c5.547,0,9.858-1.853,13.254-5.857
	c3.388-4.007,5.24-8.631,5.24-14.176c0-5.547-1.853-10.171-5.24-14.184c-3.396-4.004-8.017-5.852-13.254-5.852
	c-5.241,0-9.865,1.848-13.252,5.852C182.776,90.925,181.236,95.549,181.236,101.409 M193.252,101.409
	c0-5.547,0.313-9.56,0.929-12.024c0.924-3.695,2.771-5.24,5.548-5.24c2.466,0,4.007,1.233,4.931,4.004
	c0.923,2.776,1.236,7.093,1.236,13.26c0,6.164-0.313,10.476-1.236,13.252c-0.617,2.777-2.464,4.004-4.931,4.004
	c-2.777,0-4.624-1.541-5.548-5.24C193.564,111.267,193.252,107.26,193.252,101.409 M172.912,83.837c2.464,1.853,3.7,4.005,3.7,6.781
	c0,1.231-0.312,2.467-1.54,3.694c-0.924,0.929-2.161,1.549-3.7,1.549c-1.237,0-1.848-0.313-2.771-0.929
	c-1.543-0.62-2.161-2.16-2.161-4.619v-0.929v-1.542c0-1.541-0.312-2.464-0.928-3.082c-0.612-0.616-1.535-0.616-2.459-0.616
	c-2.47,0-4.012,1.233-5.241,4.004c-0.929,2.776-1.543,6.164-1.543,9.56c0,5.24,0.924,9.552,3.078,12.945
	c1.853,3.695,4.629,5.234,8.017,5.234c2.16,0,4.008-0.304,5.547-1.228c0.929-0.62,1.853-1.847,3.388-3.083l1.543,1.236
	c-2.771,3.695-5.855,6.158-9.555,7.699c-1.848,0.62-3.7,0.929-5.852,0.929c-5.243,0-9.56-1.853-12.948-5.553
	c-3.388-3.692-4.936-8.315-4.936-13.863c0-5.86,1.852-10.484,5.243-14.488c3.697-4.316,8.321-6.164,14.181-6.164
	C167.364,81.373,170.448,82.297,172.912,83.837"/>
</svg>
