<?xml version="1.0" encoding="utf-8"?>
<!-- Generator: Adobe Illustrator 15.0.0, SVG Export Plug-In  -->
<!DOCTYPE svg PUBLIC "-//W3C//DTD SVG 1.1//EN" "http://www.w3.org/Graphics/SVG/1.1/DTD/svg11.dtd" [
	<!ENTITY ns_flows "http://ns.adobe.com/Flows/1.0/">
]>
<svg version="1.1"
	 xmlns="http://www.w3.org/2000/svg" xmlns:xlink="http://www.w3.org/1999/xlink" xmlns:a="http://ns.adobe.com/AdobeSVGViewerExtensions/3.0/"
	 x="0px" y="0px" width="360px" height="122px" viewBox="0 0 360 122" enable-background="new 0 0 360 122" xml:space="preserve">
<defs>
</defs>
<path fill="#FFFFFF" d="M64.728,67.811l29.59,50.547H34.523L64.728,67.811z M98.323,33.907c-17.572,0-31.748,14.176-31.748,31.743
	h63.182C129.757,48.083,115.582,33.907,98.323,33.907 M31.747,33.907C14.176,33.907,0,48.083,0,65.65h63.182
	C63.182,48.083,49.007,33.907,31.747,33.907 M65.035,0C47.463,0,33.288,14.176,33.288,31.747H96.47C96.47,14.176,82.294,0,65.035,0"
	/>
<path fill="#FFFFFF" d="M323.018,101.409c0,5.545,1.849,10.476,5.235,14.176c3.395,4.004,8.017,5.856,13.26,5.856
	c5.545,0,9.858-1.853,13.56-5.856c3.394-4.007,4.929-8.631,4.929-14.176c0-5.548-1.535-10.171-5.235-14.185
	c-3.394-4.004-7.707-5.852-13.252-5.852c-5.243,0-9.56,1.848-13.26,5.852C324.865,90.925,323.018,95.549,323.018,101.409
	 M335.346,101.409c0-5.548,0-9.56,0.619-12.024c0.924-3.695,2.771-5.24,5.548-5.24c2.464,0,4.313,1.233,5.24,4.004
	c0.611,2.776,1.229,7.094,1.229,13.261c0,6.164-0.617,10.476-1.229,13.252c-0.929,2.776-2.472,4.004-5.24,4.004
	c-2.775,0-4.624-1.541-5.548-5.24C335.346,111.268,335.346,107.26,335.346,101.409 M253.977,118.361
	c1.235,0,2.465-0.313,3.082-0.924c0.611-0.619,1.23-2.166,1.23-4.013V89.078c0-1.541-0.307-2.776-0.923-3.389
	c-0.619-0.615-1.849-0.929-3.39-1.235v-2.157h15.717v5.545c1.238-1.541,2.777-3.082,4.009-4.005c2.157-1.54,4.928-2.464,7.705-2.464
	c3.387,0,5.86,0.611,7.704,2.156c0.924,0.925,1.848,2.16,2.777,4.313h0.618c1.535-1.845,3.076-3.388,4.619-4.313
	c2.157-1.545,4.621-2.156,7.397-2.156c2.771,0,5.243,0.924,7.708,2.771c2.158,1.853,3.08,4.621,3.08,8.627v20.965
	c0,1.848,0.308,3.08,0.924,3.701c0.62,0.304,1.848,0.922,3.396,0.922v2.151h-19.729v-2.151c1.541-0.313,2.773-0.619,3.394-0.922
	c0.304-0.621,0.611-1.854,0.611-3.701V93.702c0-2.161-0.308-4.009-0.925-5.241c-0.615-0.923-1.852-1.542-3.387-1.542
	c-1.541,0-3.082,0.619-4.629,1.847c-1.535,1.236-2.459,2.16-2.459,2.776v22.196c0,1.848,0.305,3.08,0.924,3.388
	c0.611,0.617,1.535,0.923,3.082,1.235v2.152H277.4v-2.152c1.231,0,2.468-0.619,3.084-0.922c0.617-0.621,0.925-1.854,0.925-3.701
	V93.702c0-2.161-0.308-3.7-0.925-4.937c-0.616-1.229-1.853-1.848-3.699-1.848c-1.848,0-3.389,0.619-4.624,1.848
	c-1.541,1.235-2.157,2.159-2.157,2.471v22.5c0,1.849,0.311,3.082,0.616,3.389c0.616,0.617,1.541,0.923,3.084,1.236v2.15h-19.726
	v-2.15H253.977z M222.229,107.877h2.467c0.611,4.007,2.156,6.783,4.623,8.323c2.158,1.541,4.316,2.464,6.775,2.464
	c2.165,0,3.7-0.617,4.629-1.541c0.924-0.924,1.535-2.16,1.535-3.7c0-1.541-0.611-2.771-1.535-3.7
	c-0.617-0.617-1.541-1.229-3.082-1.847l-5.857-3.082c-3.389-1.542-5.549-3.387-7.088-5.239c-1.236-1.848-2.16-4.008-2.16-6.472
	c0-3.083,1.236-5.86,3.388-8.324c2.165-2.159,5.554-3.387,9.56-3.387c1.541,0,3.389,0.304,5.547,0.924
	c1.848,0.616,3.082,0.925,3.701,0.925c0.617,0,0.924-0.309,1.228-0.621c0.313-0.304,0.62-0.617,0.924-1.228h1.853v12.017h-1.853
	c-0.924-2.771-2.151-5.24-4.004-6.775c-1.847-1.854-4.007-2.469-6.471-2.469c-1.847,0-3.388,0.31-4.316,1.545
	c-0.924,0.924-1.231,1.848-1.231,3.076c0,1.235,0.308,2.159,1.231,3.082c0.616,0.924,2.157,1.854,4.316,3.084l4.624,2.156
	c2.775,1.236,4.928,2.467,6.164,4.008c2.158,2.157,3.082,4.623,3.082,7.704c0,3.083-0.924,6.164-3.082,8.638
	c-2.463,2.771-5.859,4.004-10.17,4.004c-1.236,0-2.16,0-3.389-0.311c-1.236-0.307-2.469-0.62-4.012-1.236l-1.535-0.61
	c-0.615,0-0.929,0-0.929-0.313h-0.616c-0.309,0-0.924,0.313-1.236,0.617c-0.308,0.307-0.611,0.924-0.924,1.854h-2.154v-13.564
	H222.229z M181.236,101.409c0,5.545,1.541,10.476,5.24,14.176c3.389,4.004,7.705,5.856,13.252,5.856s9.858-1.853,13.254-5.856
	c3.389-4.007,5.24-8.631,5.24-14.176c0-5.548-1.853-10.171-5.24-14.185c-3.396-4.004-8.017-5.852-13.254-5.852
	c-5.24,0-9.865,1.848-13.252,5.852C182.775,90.925,181.236,95.549,181.236,101.409 M193.252,101.409c0-5.548,0.313-9.56,0.93-12.024
	c0.924-3.695,2.771-5.24,5.547-5.24c2.467,0,4.008,1.233,4.932,4.004c0.923,2.776,1.236,7.094,1.236,13.261
	c0,6.164-0.313,10.476-1.236,13.252c-0.617,2.776-2.465,4.004-4.932,4.004c-2.776,0-4.623-1.541-5.547-5.24
	C193.564,111.268,193.252,107.26,193.252,101.409 M172.912,83.837c2.464,1.853,3.7,4.005,3.7,6.781c0,1.231-0.312,2.467-1.54,3.694
	c-0.924,0.929-2.161,1.549-3.7,1.549c-1.237,0-1.848-0.313-2.771-0.93c-1.543-0.619-2.161-2.16-2.161-4.619v-0.929v-1.542
	c0-1.541-0.312-2.464-0.928-3.082c-0.612-0.615-1.535-0.615-2.459-0.615c-2.47,0-4.012,1.232-5.241,4.004
	c-0.929,2.775-1.543,6.164-1.543,9.56c0,5.24,0.924,9.552,3.078,12.944c1.853,3.695,4.629,5.234,8.017,5.234
	c2.16,0,4.008-0.304,5.547-1.228c0.929-0.62,1.853-1.847,3.388-3.083l1.543,1.236c-2.771,3.694-5.855,6.158-9.555,7.698
	c-1.848,0.62-3.7,0.929-5.852,0.929c-5.243,0-9.56-1.853-12.948-5.553c-3.388-3.691-4.936-8.314-4.936-13.863
	c0-5.859,1.852-10.483,5.243-14.487c3.697-4.315,8.321-6.164,14.181-6.164C167.364,81.373,170.448,82.297,172.912,83.837"/>
</svg>
